<?xml version="1.0" standalone="no"?>
<!DOCTYPE svg PUBLIC "-//W3C//DTD SVG 20010904//EN"
 "http://www.w3.org/TR/2001/REC-SVG-20010904/DTD/svg10.dtd">
<svg version="1.0" xmlns="http://www.w3.org/2000/svg"
 width="968.000000pt" height="679.000000pt" viewBox="0 0 968.000000 679.000000"
 preserveAspectRatio="xMidYMid meet">
<metadata>
Created by potrace 1.16, written by Peter Selinger 2001-2019
</metadata>
<g transform="translate(0.000000,679.000000) scale(0.100000,-0.100000)"
fill="#000000" stroke="none">
<path d="M0 3970 l0 -2800 4835 0 4835 0 0 2800 0 2800 -4835 0 -4835 0 0
-2800z m9290 0 l0 -2420 -4455 0 -4455 0 0 2420 0 2420 4455 0 4455 0 0 -2420z"/>
<path d="M1080 4785 l0 -875 205 0 205 0 2 318 3 317 323 3 322 2 0 185 0 185
-322 2 -323 3 -3 173 -2 172 415 0 415 0 0 195 0 195 -620 0 -620 0 0 -875z"/>
<path d="M2580 5121 c0 -581 4 -638 55 -784 35 -102 81 -173 166 -259 60 -60
95 -85 160 -116 144 -69 298 -96 471 -81 125 10 205 31 304 80 177 87 298 245
357 464 20 76 21 106 24 658 l4 577 -205 0 -206 0 0 -482 c0 -266 -4 -521 -9
-568 -18 -168 -86 -277 -200 -321 -79 -31 -223 -31 -302 0 -73 28 -138 96
-168 175 -34 91 -41 209 -41 719 l0 477 -205 0 -205 0 0 -539z"/>
<path d="M4450 4785 l0 -875 620 0 620 0 0 195 0 195 -415 0 -415 0 0 680 0
680 -205 0 -205 0 0 -875z"/>
<path d="M5940 4785 l0 -875 625 0 625 0 0 195 0 195 -415 0 -415 0 0 680 0
680 -210 0 -210 0 0 -875z"/>
<path d="M1080 2860 l0 -640 150 0 150 0 0 235 0 235 235 0 235 0 0 135 0 135
-235 0 -235 0 0 125 c0 123 0 125 23 125 12 0 148 1 302 3 l280 2 0 140 0 140
-452 3 -453 2 0 -640z"/>
<path d="M2200 2861 l0 -641 150 0 150 0 0 210 0 211 81 -3 82 -3 117 -205
117 -205 168 -3 c132 -2 166 0 162 10 -2 7 -64 111 -136 231 -72 120 -131 221
-131 225 0 4 20 20 44 35 60 38 113 98 145 166 23 50 26 67 26 171 0 97 -4
124 -24 173 -45 112 -173 213 -316 247 -30 7 -168 14 -342 17 l-293 5 0 -641z
m566 344 c35 -6 78 -46 93 -88 26 -67 1 -143 -59 -184 -30 -21 -44 -23 -166
-23 l-134 0 0 149 c0 90 4 151 10 153 14 4 218 -1 256 -7z"/>
<path d="M3807 3493 c-7 -12 -507 -1262 -507 -1268 0 -3 73 -4 161 -3 l162 3
34 95 c19 52 38 97 43 100 13 8 406 12 459 5 l47 -6 35 -97 35 -97 163 -3
c152 -2 162 -1 157 15 -3 10 -117 297 -254 638 l-248 620 -141 3 c-78 1 -144
-1 -146 -5z m167 -430 c10 -32 42 -125 72 -207 30 -82 54 -153 54 -157 0 -5
-69 -9 -154 -9 l-154 0 53 143 c29 78 63 175 76 215 12 39 26 72 29 72 4 0 14
-26 24 -57z"/>
<path d="M4715 3488 c-3 -7 -4 -294 -3 -638 l3 -625 149 -3 149 -3 -5 381 c-3
254 -1 377 6 370 5 -5 65 -103 132 -217 l122 -208 79 -3 80 -3 127 218 c71
120 131 221 135 225 3 4 5 -166 3 -377 l-4 -385 146 0 146 0 0 640 0 640 -139
0 -139 0 -135 -217 c-73 -120 -151 -248 -173 -285 -21 -37 -42 -68 -46 -68 -3
0 -18 21 -33 48 -14 26 -92 154 -172 285 l-147 237 -138 0 c-102 0 -140 -3
-143 -12z"/>
<path d="M6275 3488 c-3 -7 -4 -294 -3 -638 l3 -625 468 -3 467 -2 0 145 0
145 -319 0 -320 0 2 113 2 112 243 3 242 2 0 130 0 130 -242 2 -243 3 0 104 0
103 286 -1 c158 -1 299 1 313 5 l26 6 0 139 0 139 -460 0 c-359 0 -462 -3
-465 -12z"/>
<path d="M756 814 c-38 -39 -36 -93 5 -128 74 -63 196 -1 173 88 -16 67 -126
92 -178 40z"/>
<path d="M6139 811 c-40 -40 -39 -82 1 -123 28 -28 35 -30 82 -26 93 9 129 88
69 149 -24 24 -38 29 -76 29 -38 0 -52 -5 -76 -29z"/>
<path d="M8767 820 c-34 -27 -43 -70 -22 -110 44 -85 195 -56 195 38 -1 41
-13 63 -47 80 -34 19 -97 15 -126 -8z"/>
<path d="M1500 675 l0 -155 -49 35 c-56 41 -119 55 -189 44 -98 -15 -163 -66
-206 -159 -26 -57 -27 -193 -3 -258 42 -109 138 -175 256 -176 55 -1 74 4 114
27 27 16 51 35 54 43 10 27 23 14 23 -23 l0 -38 67 2 c38 1 74 2 81 2 9 1 12
89 12 406 l0 405 -80 0 -80 0 0 -155z m-70 -227 c46 -32 70 -82 70 -146 0
-104 -55 -164 -152 -164 -89 0 -148 65 -148 164 0 67 16 104 60 142 42 35 121
37 170 4z"/>
<path d="M3755 811 c-101 -25 -157 -83 -163 -170 -3 -48 1 -65 27 -115 17 -32
30 -60 29 -61 -2 -1 -19 -11 -39 -23 -149 -89 -182 -254 -74 -358 57 -55 126
-78 232 -78 75 0 89 4 153 36 l70 36 50 -33 c85 -57 185 -56 252 3 l30 28 -25
51 -26 51 -41 -20 c-25 -12 -49 -18 -64 -14 -26 6 -86 52 -86 66 0 4 32 52 70
106 39 54 70 104 70 111 0 10 -20 13 -77 13 l-78 0 -38 -55 c-21 -30 -42 -55
-46 -55 -5 0 -29 24 -53 53 l-45 52 37 26 c66 47 94 93 98 163 4 70 -14 107
-70 148 -59 44 -120 56 -193 39z m92 -129 c41 -26 29 -98 -24 -136 l-26 -19
-29 32 c-49 55 -29 131 35 131 18 0 37 -4 44 -8z m-23 -402 c36 -41 66 -78 66
-82 0 -3 -14 -17 -32 -29 -62 -45 -179 -33 -208 20 -15 29 -12 83 6 110 19 27
74 62 91 59 6 -2 41 -37 77 -78z"/>
<path d="M8307 723 c-3 -10 -8 -36 -12 -58 -12 -75 -12 -75 -66 -75 l-49 0 0
-59 0 -60 43 -3 42 -3 5 -170 c4 -148 8 -175 26 -205 27 -47 74 -77 134 -85
126 -17 230 56 230 163 0 68 -5 72 -76 72 l-63 0 5 -29 c9 -42 -11 -71 -47
-71 -43 0 -50 29 -47 189 l3 136 83 3 82 3 0 59 0 59 -82 3 -83 3 -3 73 -3 72
-59 0 c-47 0 -60 -3 -63 -17z"/>
<path d="M2043 600 c-146 -21 -252 -133 -261 -276 -9 -133 52 -236 170 -289
53 -24 76 -29 148 -29 100 0 163 18 233 70 l49 36 -24 25 c-12 14 -35 34 -50
44 l-27 20 -42 -28 c-34 -23 -56 -28 -113 -31 -84 -4 -128 15 -163 67 -42 62
-47 61 212 61 l235 0 0 29 c0 16 -9 59 -21 96 -45 145 -185 228 -346 205z
m127 -145 c15 -8 38 -27 49 -41 40 -51 34 -54 -124 -54 -155 0 -161 2 -129 49
40 57 139 80 204 46z"/>
<path d="M2738 600 c-159 -27 -267 -161 -256 -319 8 -113 70 -200 177 -249 45
-21 72 -26 136 -26 71 -1 88 3 147 32 116 57 168 142 168 272 0 187 -174 322
-372 290z m147 -164 c41 -27 65 -75 65 -129 0 -83 -53 -149 -130 -162 -48 -8
-122 24 -152 65 -40 55 -35 145 10 198 49 59 141 71 207 28z"/>
<path d="M4879 599 c-92 -14 -160 -66 -201 -154 -31 -68 -32 -208 -2 -275 29
-64 69 -107 124 -135 98 -50 200 -42 269 21 21 18 41 34 45 34 3 0 6 -16 6
-35 l0 -35 80 0 80 0 0 285 0 285 -80 0 -80 0 0 -35 c0 -41 -3 -42 -33 -14
-52 49 -126 70 -208 58z m161 -147 c52 -27 82 -92 78 -165 -4 -60 -23 -95 -69
-129 -36 -27 -118 -26 -162 1 -92 57 -94 233 -4 290 40 26 111 27 157 3z"/>
<path d="M5765 605 c-5 -2 -27 -6 -48 -10 -23 -4 -53 -20 -78 -42 l-39 -35 0
36 0 36 -85 0 -85 0 0 -285 0 -285 85 0 85 0 0 180 c0 193 6 222 52 254 29 20
87 20 116 0 42 -29 47 -51 52 -248 l5 -188 63 0 c34 1 69 1 77 1 22 1 22 389
0 450 -20 59 -49 96 -87 114 -35 15 -96 28 -113 22z"/>
<path d="M6755 605 c-5 -2 -22 -6 -38 -9 -15 -4 -45 -23 -67 -42 l-40 -36 0
36 0 36 -80 0 -80 0 0 -284 0 -284 76 -4 c42 -2 78 -1 80 1 2 2 4 79 4 170 0
91 5 183 10 203 18 64 86 97 142 67 39 -21 48 -67 48 -258 l0 -179 28 -4 c15
-2 52 -1 80 2 l53 5 2 180 c3 191 12 231 56 255 25 13 67 13 92 0 42 -23 49
-58 49 -255 l0 -185 53 -1 c28 0 60 -2 71 -4 47 -9 48 -6 44 214 -4 163 -8
215 -22 251 -32 85 -85 121 -180 122 -72 2 -144 -27 -170 -68 l-17 -24 -30 34
c-16 19 -44 39 -62 44 -41 13 -89 20 -102 17z"/>
<path d="M7675 600 c-97 -15 -179 -88 -210 -186 -23 -73 -17 -179 15 -251 67
-155 273 -212 389 -107 21 18 41 34 45 34 3 0 6 -16 6 -35 l0 -35 80 0 80 0 0
285 0 285 -80 0 -80 0 0 -35 c0 -41 -8 -44 -40 -10 -40 42 -132 67 -205 55z
m161 -146 c85 -41 112 -188 47 -265 -31 -37 -64 -51 -120 -51 -89 0 -146 65
-147 166 -1 69 26 126 72 151 36 19 106 19 148 -1z"/>
<path d="M9280 596 c-166 -35 -265 -180 -239 -346 22 -138 121 -225 280 -245
98 -12 232 29 286 87 l23 24 -44 43 -43 43 -55 -31 c-44 -25 -66 -31 -113 -31
-72 0 -139 30 -160 71 -32 61 -38 59 220 59 l235 0 -6 43 c-18 129 -71 210
-166 256 -75 35 -143 44 -218 27z m168 -153 c29 -22 54 -62 46 -75 -7 -11
-281 -10 -288 0 -9 16 34 73 67 88 45 20 139 14 175 -13z"/>
<path d="M13 578 c56 -142 233 -555 239 -559 5 -3 21 -5 36 -4 15 1 50 3 78 3
l50 2 113 273 c62 149 116 278 118 285 4 9 -17 12 -84 12 l-90 0 -69 -190
c-38 -104 -71 -190 -74 -190 -4 0 -37 85 -74 190 l-68 190 -90 0 c-68 0 -89
-3 -85 -12z"/>
<path d="M750 306 c0 -157 3 -286 8 -288 4 -2 40 -2 80 0 l72 4 0 284 0 284
-80 0 -80 0 0 -284z"/>
<path d="M6130 306 l0 -284 71 -4 c38 -2 76 -1 84 2 12 4 14 53 12 285 l-2
280 -82 3 -83 3 0 -285z"/>
<path d="M8750 306 l0 -284 69 -4 c38 -2 76 -2 85 0 14 3 16 34 16 288 l0 284
-85 0 -85 0 0 -284z"/>
</g>
</svg>
