<?xml version="1.0" standalone="no"?>
<!DOCTYPE svg PUBLIC "-//W3C//DTD SVG 20010904//EN"
 "http://www.w3.org/TR/2001/REC-SVG-20010904/DTD/svg10.dtd">
<svg version="1.0" xmlns="http://www.w3.org/2000/svg"
 width="780.000000pt" height="439.000000pt" viewBox="0 0 780.000000 439.000000"
 preserveAspectRatio="xMidYMid meet">
<metadata>
Created by potrace 1.16, written by Peter Selinger 2001-2019
</metadata>
<g transform="translate(0.000000,439.000000) scale(0.100000,-0.100000)"
fill="#000000" stroke="none">
<path d="M5345 2978 c-80 -15 -190 -73 -248 -131 -92 -93 -137 -207 -137 -347
1 -147 46 -256 146 -349 186 -174 488 -188 667 -31 41 36 115 136 106 144 -2
2 -49 24 -103 50 -83 39 -101 44 -108 32 -80 -142 -275 -162 -388 -40 -23 25
-47 60 -55 77 -54 133 -6 292 108 357 103 59 208 48 287 -29 26 -25 49 -52 52
-60 3 -10 31 0 106 38 l103 52 -23 40 c-28 51 -112 130 -166 158 -93 47 -225
62 -347 39z"/>
<path d="M7203 2980 c-198 -42 -309 -201 -260 -371 32 -106 117 -169 287 -209
230 -55 249 -64 236 -114 -10 -40 -59 -60 -146 -59 -87 1 -163 26 -241 79 -28
19 -53 34 -55 34 -2 0 -31 -40 -64 -89 l-60 -90 38 -31 c54 -45 146 -86 234
-104 249 -51 467 29 522 191 22 63 20 168 -3 218 -23 50 -88 110 -149 136 -26
11 -92 31 -147 45 -157 38 -179 45 -197 62 -24 21 -23 55 3 78 45 40 207 16
312 -47 l47 -29 64 88 c58 78 63 89 50 103 -22 25 -121 75 -184 93 -66 20
-228 29 -287 16z"/>
<path d="M3260 2500 l0 -470 315 0 315 0 0 105 0 105 -195 0 -195 0 0 365 0
365 -120 0 -120 0 0 -470z"/>
<path d="M3962 2633 l3 -338 29 -62 c81 -176 303 -260 547 -209 133 29 219 93
273 206 l31 65 3 338 3 337 -120 0 -121 0 0 -287 c0 -179 -4 -303 -11 -328
-44 -157 -297 -178 -377 -31 -15 27 -17 71 -20 339 l-3 307 -120 0 -120 0 3
-337z"/>
<path d="M6221 2943 c-23 -59 -341 -905 -341 -909 0 -3 61 -3 137 -2 l136 3
22 65 22 65 189 0 189 0 24 -67 23 -68 134 0 c74 0 134 3 134 8 0 4 -78 214
-174 467 l-173 460 -155 3 -155 2 -12 -27z m232 -395 c30 -92 52 -169 49 -172
-3 -3 -56 -6 -119 -6 -84 0 -113 3 -113 12 0 28 113 349 120 341 4 -4 32 -83
63 -175z"/>
</g>
</svg>
